<svg xmlns="http://www.w3.org/2000/svg" viewBox="0 0 800 460">
  <rect width="800" height="460" fill="#FFF3E0" rx="16"/>
  <ellipse cx="400" cy="430" rx="300" ry="14" fill="rgba(0,0,0,0.06)"/>
  
  <!-- Mesa de trabajo -->
  <rect x="80" y="340" width="640" height="16" rx="6" fill="#D3D1C7"/>
  <rect x="100" y="354" width="20" height="60" rx="4" fill="#D3D1C7"/>
  <rect x="680" y="354" width="20" height="60" rx="4" fill="#D3D1C7"/>
  
  <!-- Unidad dental en mesa (necesita reparación) -->
  <rect x="120" y="240" width="200" height="100" rx="10" fill="#0C447C" opacity="0.8"/>
  <rect x="128" y="248" width="184" height="84" rx="8" fill="#185FA5" opacity="0.8"/>
  <!-- Sillón inclinado/desmontado -->
  <rect x="120" y="180" width="200" height="65" rx="8" fill="#E6F1FB" opacity="0.8"/>
  <!-- Icono de error/falla -->
  <circle cx="220" cy="213" r="22" fill="#B80000"/>
  <text x="220" y="222" text-anchor="middle" font-family="sans-serif" font-size="22" fill="#fff" font-weight="bold">!</text>
  
  <!-- Componentes desmontados -->
  <rect x="100" y="305" width="40" height="28" rx="4" fill="#9FE1CB" stroke="#0F6E56" stroke-width="1"/>
  <text x="120" y="324" text-anchor="middle" font-family="sans-serif" font-size="8" fill="#042C53">VÁLVULA</text>
  <rect x="150" y="308" width="36" height="22" rx="4" fill="#B5D4F4" stroke="#185FA5" stroke-width="1"/>
  <text x="168" y="323" text-anchor="middle" font-family="sans-serif" font-size="7" fill="#042C53">SOLENOIDE</text>
  <rect x="196" y="305" width="44" height="28" rx="4" fill="#FAEEDA" stroke="#BA7517" stroke-width="1"/>
  <text x="218" y="324" text-anchor="middle" font-family="sans-serif" font-size="8" fill="#042C53">TARJETA</text>
  <rect x="250" y="308" width="60" height="22" rx="4" fill="#E6F1FB" stroke="#185FA5" stroke-width="1"/>
  <text x="280" y="323" text-anchor="middle" font-family="sans-serif" font-size="7" fill="#042C53">MANGUERA 6mm</text>
  
  <!-- Técnico analizando (brazo derecho) -->
  <!-- Cuerpo técnico -->
  <rect x="440" y="230" width="55" height="110" rx="8" fill="#185FA5"/>
  <circle cx="467" cy="210" r="26" fill="#FDBCB4"/>
  <ellipse cx="467" cy="195" rx="28" ry="12" fill="#FFD700"/>
  <rect x="440" y="194" width="55" height="7" rx="3" fill="#E6B800"/>
  <!-- Gafas de trabajo -->
  <rect x="453" y="204" width="12" height="8" rx="3" fill="none" stroke="#042C53" stroke-width="2"/>
  <rect x="467" y="204" width="12" height="8" rx="3" fill="none" stroke="#042C53" stroke-width="2"/>
  <line x1="465" y1="208" x2="467" y2="208" stroke="#042C53" stroke-width="1.5"/>
  <!-- Brazos técnico -->
  <rect x="392" y="235" width="50" height="16" rx="7" fill="#185FA5"/>
  <rect x="493" y="235" width="50" height="16" rx="7" fill="#185FA5"/>
  <!-- Mano izquierda con multímetro -->
  <rect x="378" y="244" width="18" height="9" rx="4" fill="#FDBCB4"/>
  <!-- Multímetro -->
  <rect x="340" y="220" width="44" height="64" rx="8" fill="#042C53"/>
  <rect x="345" y="226" width="34" height="30" rx="4" fill="#0a1a2e"/>
  <text x="362" y="238" text-anchor="middle" font-family="monospace" font-size="9" fill="#9FE1CB">125.4</text>
  <text x="362" y="250" text-anchor="middle" font-family="monospace" font-size="7" fill="#FFD700">VAC</text>
  <circle cx="355" cy="269" r="6" fill="#FF4444"/>
  <circle cx="370" cy="269" r="6" fill="#0F6E56"/>
  <!-- Cables del multímetro -->
  <path d="M355 275 Q355 290 340 295" stroke="#FF4444" stroke-width="2" fill="none"/>
  <path d="M370 275 Q375 290 382 248" stroke="#0F6E56" stroke-width="2" fill="none"/>
  <!-- Mano derecha con tablet -->
  <rect x="541" y="244" width="18" height="9" rx="4" fill="#FDBCB4"/>
  <rect x="557" y="220" width="50" height="65" rx="8" fill="#fff" stroke="#185FA5" stroke-width="2"/>
  <rect x="563" y="228" width="38" height="28" rx="3" fill="#F0F6FF"/>
  <!-- Diagnóstico en tablet -->
  <rect x="565" y="231" width="34" height="4" rx="2" fill="#B80000"/>
  <rect x="565" y="238" width="24" height="3" rx="1" fill="#D3D1C7"/>
  <rect x="565" y="244" width="28" height="3" rx="1" fill="#D3D1C7"/>
  <text x="586" y="265" text-anchor="middle" font-family="sans-serif" font-size="8" fill="#B80000">FALLA EN</text>
  <text x="586" y="275" text-anchor="middle" font-family="sans-serif" font-size="8" fill="#B80000">VÁLVULA</text>
  <rect x="563" y="278" width="38" height="14" rx="3" fill="#0F6E56"/>
  <text x="582" y="289" text-anchor="middle" font-family="sans-serif" font-size="8" fill="#fff">REPARABLE ✓</text>
  <!-- Piernas técnico -->
  <rect x="440" y="338" width="22" height="50" rx="6" fill="#042C53"/>
  <rect x="470" y="338" width="22" height="50" rx="6" fill="#042C53"/>
  <ellipse cx="451" cy="388" rx="16" ry="7" fill="#2C2C2A"/>
  <ellipse cx="481" cy="388" rx="16" ry="7" fill="#2C2C2A"/>

  <!-- Proceso de reparación - pasos -->
  <rect x="600" y="160" width="160" height="170" rx="10" fill="#fff" stroke="#9FE1CB" stroke-width="2"/>
  <rect x="600" y="160" width="160" height="28" rx="10" fill="#0F6E56"/>
  <rect x="600" y="176" width="160" height="12" fill="#0F6E56"/>
  <text x="680" y="179" text-anchor="middle" font-family="sans-serif" font-size="10" fill="#fff" font-weight="bold">PROCESO MMD</text>
  <text x="614" y="202" font-family="sans-serif" font-size="10" fill="#0F6E56" font-weight="bold">1. Diagnóstico</text>
  <text x="614" y="215" font-family="sans-serif" font-size="9" fill="#5F5E5A">Identificar causa raíz</text>
  <text x="614" y="232" font-family="sans-serif" font-size="10" fill="#0F6E56" font-weight="bold">2. Presupuesto</text>
  <text x="614" y="245" font-family="sans-serif" font-size="9" fill="#5F5E5A">Sin sorpresas de costo</text>
  <text x="614" y="262" font-family="sans-serif" font-size="10" fill="#0F6E56" font-weight="bold">3. Reparación</text>
  <text x="614" y="275" font-family="sans-serif" font-size="9" fill="#5F5E5A">Refacciones de calidad</text>
  <text x="614" y="292" font-family="sans-serif" font-size="10" fill="#0F6E56" font-weight="bold">4. Prueba</text>
  <text x="614" y="305" font-family="sans-serif" font-size="9" fill="#5F5E5A">Verificación completa</text>
  <rect x="610" y="315" width="140" height="16" rx="4" fill="#0F6E56"/>
  <text x="680" y="327" text-anchor="middle" font-family="sans-serif" font-size="9" fill="#fff" font-weight="bold">Garantía 6 meses en refacciones</text>

  <text x="400" y="450" text-anchor="middle" font-family="'DM Sans',sans-serif" font-size="13" fill="#5F5E5A" font-weight="600">MMD Servicios · Diagnóstico y Reparación de Unidades Dentales</text>
</svg>